<?xml version="1.0"?>
<svg xmlns="http://www.w3.org/2000/svg" xmlns:xlink="http://www.w3.org/1999/xlink" xml:space="preserve" width="1024" height="1024">
  <defs>
    <linearGradient id="a">
      <stop offset="0" style="stop-color:#b44252;stop-opacity:1;"/>
      <stop offset="1" style="stop-color:#ed6040;stop-opacity:1;"/>
    </linearGradient>
    <linearGradient id="e" x1="225.88859" x2="225.88859" y1="1.9551429" y2="442.21643" gradientTransform="scale(1.1288751,0.8858376)" gradientUnits="userSpaceOnUse">
      <stop offset="0%" stop-color="#34AADC"/>
      <stop offset="100%" stop-color="#007AFF"/>
    </linearGradient>
    <linearGradient xlink:href="#a" id="c" x1="519.62042" x2="519.62042" y1="923.44147" y2="103.99496" gradientUnits="userSpaceOnUse"/>
    <filter id="b" width="1.0699029" height="1.0699029" x="-0.034951456" y="-0.034951456">
      <feGaussianBlur stdDeviation="12"/>
    </filter>
    <filter id="d" width="1.0241449" height="1.0435897" x="-0.012072435" y="-0.015384615">
      <feOffset dy="5" in="SourceAlpha" result="offset"/>
      <feGaussianBlur in="offset" result="blur" stdDeviation="2.5"/>
      <feColorMatrix in="blur" result="matrix" values="0 0 0 0 0 0 0 0 0 0 0 0 0 0 0 0 0 0 0.07 0"/>
      <feMerge>
        <feMergeNode in="matrix"/>
        <feMergeNode in="SourceGraphic"/>
      </feMerge>
    </filter>
  </defs>
  <path fill="rgba(0,0,0,0.3)" d="m 924,355.412 c 0,-9.782 0,-18.35 -0.056,-28.133 -0.049,-8.241 -0.144,-16.48 -0.368,-24.716 -0.484,-17.954 -1.543,-36.061 -4.736,-53.813 -3.238,-18.01 -8.526,-34.77 -16.859,-51.133 a 171.963,171.963 0 0 0 -31.661,-43.559 172.06,172.06 0 0 0 -43.574,-31.64 c -16.381,-8.335 -33.159,-13.621 -51.188,-16.858 -17.755,-3.188 -35.867,-4.245 -53.82,-4.73 -8.243,-0.223 -16.485,-0.317 -24.73,-0.368 -9.788,-0.06 -19.576,-0.055 -29.364,-0.055 L 553.997,100 h -84.999 l -111.637,0.407 c -9.807,0 -19.614,-0.005 -29.421,0.055 -8.262,0.051 -16.52,0.145 -24.778,0.368 -17.995,0.485 -36.148,1.543 -53.945,4.735 -18.053,3.236 -34.857,8.52 -51.259,16.849 a 172.405,172.405 0 0 0 -43.667,31.644 171.994,171.994 0 0 0 -31.718,43.551 c -8.356,16.372 -13.654,33.143 -16.9,51.162 -3.196,17.746 -4.255,35.846 -4.742,53.792 -0.222,8.237 -0.318,16.476 -0.368,24.716 -0.06,9.784 -0.563,21.937 -0.563,31.72 v 195.999 l 0.508,112.429 c 0,9.796 -0.004,19.592 0.055,29.388 0.05,8.252 0.146,16.502 0.369,24.751 0.486,17.976 1.547,36.109 4.746,53.886 3.245,18.032 8.542,34.818 16.891,51.201 a 172.24,172.24 0 0 0 31.722,43.619 172.444,172.444 0 0 0 43.659,31.684 c 16.412,8.346 33.224,13.639 51.288,16.88 17.789,3.193 35.936,4.252 53.924,4.737 8.258,0.223 16.517,0.318 24.779,0.368 9.807,0.059 19.613,0.059 29.42,0.059 h 310.283 c 9.788,0 19.576,0 29.364,-0.059 8.245,-0.05 16.487,-0.145 24.73,-0.368 17.96,-0.486 36.078,-1.546 53.841,-4.741 18.018,-3.241 34.788,-8.532 51.159,-16.873 a 172.004,172.004 0 0 0 43.582,-31.687 172.23,172.23 0 0 0 31.659,-43.612 c 8.337,-16.391 13.625,-33.184 16.865,-51.229 3.19,-17.77 4.248,-35.896 4.733,-53.865 0.223,-8.25 0.318,-16.5 0.367,-24.751 C 924,687.019 924,677.223 924,667.427 Z" filter="url(#b)" style="display:inline" transform="translate(0,10)"/>
  <path fill="#fff" d="m 924,355.412 c 0,-9.782 0,-18.35 -0.056,-28.133 -0.049,-8.241 -0.144,-16.48 -0.368,-24.716 -0.484,-17.954 -1.543,-36.061 -4.736,-53.813 -3.238,-18.01 -8.526,-34.77 -16.859,-51.133 a 171.963,171.963 0 0 0 -31.661,-43.559 172.06,172.06 0 0 0 -43.574,-31.64 c -16.381,-8.335 -33.159,-13.621 -51.188,-16.858 -17.755,-3.188 -35.867,-4.245 -53.82,-4.73 -8.243,-0.223 -16.485,-0.317 -24.73,-0.368 -9.788,-0.06 -19.576,-0.055 -29.364,-0.055 L 553.997,100 h -84.999 l -111.637,0.407 c -9.807,0 -19.614,-0.005 -29.421,0.055 -8.262,0.051 -16.52,0.145 -24.778,0.368 -17.995,0.485 -36.148,1.543 -53.945,4.735 -18.053,3.236 -34.857,8.52 -51.259,16.849 a 172.405,172.405 0 0 0 -43.667,31.644 171.994,171.994 0 0 0 -31.718,43.551 c -8.356,16.372 -13.654,33.143 -16.9,51.162 -3.196,17.746 -4.255,35.846 -4.742,53.792 -0.222,8.237 -0.318,16.476 -0.368,24.716 -0.06,9.784 -0.563,21.937 -0.563,31.72 v 195.999 l 0.508,112.429 c 0,9.796 -0.004,19.592 0.055,29.388 0.05,8.252 0.146,16.502 0.369,24.751 0.486,17.976 1.547,36.109 4.746,53.886 3.245,18.032 8.542,34.818 16.891,51.201 a 172.24,172.24 0 0 0 31.722,43.619 172.444,172.444 0 0 0 43.659,31.684 c 16.412,8.346 33.224,13.639 51.288,16.88 17.789,3.193 35.936,4.252 53.924,4.737 8.258,0.223 16.517,0.318 24.779,0.368 9.807,0.059 19.613,0.059 29.42,0.059 h 310.283 c 9.788,0 19.576,0 29.364,-0.059 8.245,-0.05 16.487,-0.145 24.73,-0.368 17.96,-0.486 36.078,-1.546 53.841,-4.741 18.018,-3.241 34.788,-8.532 51.159,-16.873 a 172.004,172.004 0 0 0 43.582,-31.687 172.23,172.23 0 0 0 31.659,-43.612 c 8.337,-16.391 13.625,-33.184 16.865,-51.229 3.19,-17.77 4.248,-35.896 4.733,-53.865 0.223,-8.25 0.318,-16.5 0.367,-24.751 C 924,687.019 924,677.223 924,667.427 Z" style="display:inline;fill:url(#c);fill-opacity:1"/>
  <g>
    <path fill="rgba(0, 0, 0, 0.1)" d="M 193.37024,530.82765 31.812223,403.85594 C 15.524358,391.09388 6.5,374.00569 6.5,355.83597 6.5,337.66625 15.524358,320.57807 31.812223,307.816 L 193.37024,180.62799 C 209.6581,167.86592 231.66873,160.72782 255,160.72782 c 23.33127,0 45.12179,7.1381 61.62976,19.90017 L 478.18778,307.5997 c 16.28786,12.76206 25.31222,29.85025 25.31222,48.01997 0,18.16971 -9.02436,35.2579 -25.31222,48.01996 L 316.62976,530.61135 C 300.12179,543.58972 278.33127,550.72782 255,550.72782 c -23.33127,0 -45.12179,-7.1381 -61.62976,-19.90017 z" filter="url(#d)" style="display:inline" transform="matrix(1.3159146,0,0,1.3159146,176.44177,148.6164)"/>
    <path fill="#ff9d00" d="m 477.86111,306.92819 c 34.18519,26.65932 34.18519,70.51819 0,97.3925 L 317.01543,530.73745 c -34.18518,26.65932 -89.84568,26.65932 -124.03086,0 L 32.138889,404.53569 c -34.1851853,-26.65932 -34.1851853,-70.51819 0,-97.3925 L 192.98457,180.72643 c 34.18518,-26.65932 89.84568,-26.65932 124.03086,0 z" style="display:inline" transform="matrix(1.3159146,0,0,1.3159146,176.44177,148.6164)"/>
    <path fill="rgba(0, 0, 0, 0.1)" d="M 193.37024,451.83177 31.812223,324.86006 C 15.524358,312.098 6.5,295.00981 6.5,276.84009 c 0,-18.16972 9.024358,-35.2579 25.312223,-48.01997 L 193.37024,101.6321 C 209.6581,88.870042 231.66873,81.731939 255,81.731939 c 23.33127,0 45.12179,7.138103 61.62976,19.900161 l 161.55802,126.97172 c 16.28786,12.76206 25.31222,29.85025 25.31222,48.01997 0,18.16971 -9.02436,35.2579 -25.31222,48.01996 L 316.62976,451.61547 C 300.12179,464.59384 278.33127,471.73194 255,471.73194 c -23.33127,0 -45.12179,-7.1381 -61.62976,-19.90017 z" filter="url(#d)" style="display:inline" transform="matrix(1.3159146,0,0,1.3159146,176.44177,148.6164)"/>
    <path fill="#fc0" d="M 193.37024,451.83177 31.812223,324.86006 C 15.524358,312.098 6.5,295.00981 6.5,276.84009 c 0,-18.16972 9.024358,-35.2579 25.312223,-48.01997 L 193.37024,101.6321 C 209.6581,88.870042 231.66873,81.731939 255,81.731939 c 23.33127,0 45.12179,7.138103 61.62976,19.900161 l 161.55802,126.97172 c 16.28786,12.76206 25.31222,29.85025 25.31222,48.01997 0,18.16971 -9.02436,35.2579 -25.31222,48.01996 L 316.62976,451.61547 C 300.12179,464.59384 278.33127,471.73194 255,471.73194 c -23.33127,0 -45.12179,-7.1381 -61.62976,-19.90017 z" transform="matrix(1.3159146,0,0,1.3159146,176.44177,148.6164)"/>
    <path fill="rgba(0, 0, 0, 0.1)" d="M 193.37024,371.83177 31.812223,244.86006 C 15.524358,232.098 6.5,215.00981 6.5,196.84009 c 0,-18.16972 9.024358,-35.2579 25.312223,-48.01997 L 193.37024,21.632106 C 209.6581,8.8700422 231.66873,1.7319391 255,1.7319391 c 23.33127,0 45.12179,7.1381031 61.62976,19.9001669 L 478.18778,148.60382 c 16.28786,12.76206 25.31222,29.85025 25.31222,48.01997 0,18.16971 -9.02436,35.2579 -25.31222,48.01996 L 316.62976,371.61547 C 300.12179,384.59384 278.33127,391.73194 255,391.73194 c -23.33127,0 -45.12179,-7.1381 -61.62976,-19.90017 z" filter="url(#d)" style="display:inline" transform="matrix(1.3159146,0,0,1.3159146,176.44177,148.6164)"/>
    <path fill="url(#e)" d="M 193.37024,371.83177 31.812223,244.86006 C 15.524358,232.098 6.5,215.00981 6.5,196.84009 c 0,-18.16972 9.024358,-35.2579 25.312223,-48.01997 L 193.37024,21.632106 C 209.6581,8.8700422 231.66873,1.7319391 255,1.7319391 c 23.33127,0 45.12179,7.1381031 61.62976,19.9001669 L 478.18778,148.60382 c 16.28786,12.76206 25.31222,29.85025 25.31222,48.01997 0,18.16971 -9.02436,35.2579 -25.31222,48.01996 L 316.62976,371.61547 C 300.12179,384.59384 278.33127,391.73194 255,391.73194 c -23.33127,0 -45.12179,-7.1381 -61.62976,-19.90017 z" style="fill:url(#e)" transform="matrix(1.3159146,0,0,1.3159146,176.44177,148.6164)"/>
    <path fill="#fff" d="m 255.5578,318.52344 v 0 c 82.55545,0 149.47987,-54.70521 149.47987,-122.1875 0,-67.4823 -66.92442,-122.187503 -149.47987,-122.187503 -82.55546,0 -149.47988,54.705203 -149.47988,122.187503 0,67.48229 66.92442,122.1875 149.47988,122.1875 z m 0,12.57812 v 0 c -91.05382,0 -164.867512,-60.33662 -164.867512,-134.76562 0,-74.429 73.813692,-134.765628 164.867512,-134.765628 91.05381,0 164.8675,60.336628 164.8675,134.765628 0,74.429 -73.81369,134.76562 -164.8675,134.76562 z" transform="matrix(1.3159146,0,0,1.3159146,176.44177,148.6164)"/>
    <path fill="#8cc8f6" d="m 266.5756,248.19938 c 8.26376,-1.08242 16.31834,-3.38596 23.6918,-6.91063 l 47.05389,19.34124 -24.64728,-36.92418 c 12.96466,-16.70107 12.96466,-37.85525 0,-54.55633 l 24.64728,-36.92418 -44.34642,18.22835 -1.2748,19.49929 c 18.12909,15.20435 17.66578,39.21613 -1.17218,53.89423 -4.80682,3.84436 -10.32623,6.54236 -16.12274,8.45892 z M 244.57978,144.62415 c -13.64863,1.77453 -23.87849,6.94152 -23.87849,6.94152 l -47.011,-19.34037 24.64728,36.92418 c -12.96466,16.70108 -12.96466,37.85526 0,54.55633 l -24.64728,36.92418 45.55845,-18.72654 0.97019,-18.26289 C 201.1618,208.48071 201.31402,184.22797 220.52942,169.00232 225,165 235.10589,160.76276 236.6225,160.53735 c 0,0 7.95728,-15.9132 7.95728,-15.9132 z" transform="matrix(1.3159146,0,0,1.3159146,176.44177,148.6164)"/>
    <path fill="#fff" fill-rule="evenodd" d="m 232.94438,192.30456 -6.26176,110.9975 50.70643,-102.94336 7.26093,-110.788388 z m -0.65516,89.664 40.61499,-82.4051 -35.59129,-6.49402 z" transform="matrix(1.3159146,0,0,1.3159146,176.44177,148.6164)"/>
  </g>
</svg>
